<svg xmlns="http://www.w3.org/2000/svg" xmlns:xlink="http://www.w3.org/1999/xlink" version="1.1" class="marks" width="777" height="360" viewBox="0 0 777 360"><rect width="777" height="360" fill="white"/><g fill="none" stroke-miterlimit="10" transform="translate(39,10)"><g class="mark-group role-frame root" role="graphics-object" aria-roledescription="group mark container"><g transform="translate(0,0)"><path class="background" aria-hidden="true" d="M0.5,0.5h600v300h-600Z" stroke="#ddd"/><g><g class="mark-group role-axis" role="graphics-symbol" aria-roledescription="axis" aria-label="Y-axis for a linear scale with values from 0 to 80"><g transform="translate(0.5,0.5)"><path class="background" aria-hidden="true" d="M0,0h0v0h0Z" pointer-events="none"/><g><g class="mark-rule role-axis-grid" pointer-events="none"><line transform="translate(0,300)" x2="600" y2="0" stroke="#ddd" stroke-width="1" opacity="1"/><line transform="translate(0,263)" x2="600" y2="0" stroke="#ddd" stroke-width="1" opacity="1"/><line transform="translate(0,225)" x2="600" y2="0" stroke="#ddd" stroke-width="1" opacity="1"/><line transform="translate(0,188)" x2="600" y2="0" stroke="#ddd" stroke-width="1" opacity="1"/><line transform="translate(0,150)" x2="600" y2="0" stroke="#ddd" stroke-width="1" opacity="1"/><line transform="translate(0,113)" x2="600" y2="0" stroke="#ddd" stroke-width="1" opacity="1"/><line transform="translate(0,75)" x2="600" y2="0" stroke="#ddd" stroke-width="1" opacity="1"/><line transform="translate(0,38)" x2="600" y2="0" stroke="#ddd" stroke-width="1" opacity="1"/><line transform="translate(0,0)" x2="600" y2="0" stroke="#ddd" stroke-width="1" opacity="1"/></g></g><path class="foreground" aria-hidden="true" d="" pointer-events="none" display="none"/></g></g><g class="mark-group role-axis" role="graphics-symbol" aria-roledescription="axis" aria-label="X-axis titled 'Year' for a discrete scale with 91 values: 1979, 1980, 1981, 1982, 1983, ending with 2069"><g transform="translate(0.5,300.5)"><path class="background" aria-hidden="true" d="M0,0h0v0h0Z" pointer-events="none"/><g><g class="mark-rule role-axis-tick" pointer-events="none"><line transform="translate(3,0)" x2="0" y2="5" stroke="#888" stroke-width="1" opacity="1"/><line transform="translate(10,0)" x2="0" y2="5" stroke="#888" stroke-width="1" opacity="1"/><line transform="translate(16,0)" x2="0" y2="5" stroke="#888" stroke-width="1" opacity="1"/><line transform="translate(23,0)" x2="0" y2="5" stroke="#888" stroke-width="1" opacity="1"/><line transform="translate(30,0)" x2="0" y2="5" stroke="#888" stroke-width="1" opacity="1"/><line transform="translate(36,0)" x2="0" y2="5" stroke="#888" stroke-width="1" opacity="1"/><line transform="translate(43,0)" x2="0" y2="5" stroke="#888" stroke-width="1" opacity="1"/><line transform="translate(49,0)" x2="0" y2="5" stroke="#888" stroke-width="1" opacity="1"/><line transform="translate(56,0)" x2="0" y2="5" stroke="#888" stroke-width="1" opacity="1"/><line transform="translate(63,0)" x2="0" y2="5" stroke="#888" stroke-width="1" opacity="1"/><line transform="translate(69,0)" x2="0" y2="5" stroke="#888" stroke-width="1" opacity="1"/><line transform="translate(76,0)" x2="0" y2="5" stroke="#888" stroke-width="1" opacity="1"/><line transform="translate(82,0)" x2="0" y2="5" stroke="#888" stroke-width="1" opacity="1"/><line transform="translate(89,0)" x2="0" y2="5" stroke="#888" stroke-width="1" opacity="1"/><line transform="translate(96,0)" x2="0" y2="5" stroke="#888" stroke-width="1" opacity="1"/><line transform="translate(102,0)" x2="0" y2="5" stroke="#888" stroke-width="1" opacity="1"/><line transform="translate(109,0)" x2="0" y2="5" stroke="#888" stroke-width="1" opacity="1"/><line transform="translate(115,0)" x2="0" y2="5" stroke="#888" stroke-width="1" opacity="1"/><line transform="translate(122,0)" x2="0" y2="5" stroke="#888" stroke-width="1" opacity="1"/><line transform="translate(129,0)" x2="0" y2="5" stroke="#888" stroke-width="1" opacity="1"/><line transform="translate(135,0)" x2="0" y2="5" stroke="#888" stroke-width="1" opacity="1"/><line transform="translate(142,0)" x2="0" y2="5" stroke="#888" stroke-width="1" opacity="1"/><line transform="translate(148,0)" x2="0" y2="5" stroke="#888" stroke-width="1" opacity="1"/><line transform="translate(155,0)" x2="0" y2="5" stroke="#888" stroke-width="1" opacity="1"/><line transform="translate(162,0)" x2="0" y2="5" stroke="#888" stroke-width="1" opacity="1"/><line transform="translate(168,0)" x2="0" y2="5" stroke="#888" stroke-width="1" opacity="1"/><line transform="translate(175,0)" x2="0" y2="5" stroke="#888" stroke-width="1" opacity="1"/><line transform="translate(181,0)" x2="0" y2="5" stroke="#888" stroke-width="1" opacity="1"/><line transform="translate(188,0)" x2="0" y2="5" stroke="#888" stroke-width="1" opacity="1"/><line transform="translate(195,0)" x2="0" y2="5" stroke="#888" stroke-width="1" opacity="1"/><line transform="translate(201,0)" x2="0" y2="5" stroke="#888" stroke-width="1" opacity="1"/><line transform="translate(208,0)" x2="0" y2="5" stroke="#888" stroke-width="1" opacity="1"/><line transform="translate(214,0)" x2="0" y2="5" stroke="#888" stroke-width="1" opacity="1"/><line transform="translate(221,0)" x2="0" y2="5" stroke="#888" stroke-width="1" opacity="1"/><line transform="translate(227,0)" x2="0" y2="5" stroke="#888" stroke-width="1" opacity="1"/><line transform="translate(234,0)" x2="0" y2="5" stroke="#888" stroke-width="1" opacity="1"/><line transform="translate(241,0)" x2="0" y2="5" stroke="#888" stroke-width="1" opacity="1"/><line transform="translate(247,0)" x2="0" y2="5" stroke="#888" stroke-width="1" opacity="1"/><line transform="translate(254,0)" x2="0" y2="5" stroke="#888" stroke-width="1" opacity="1"/><line transform="translate(260,0)" x2="0" y2="5" stroke="#888" stroke-width="1" opacity="1"/><line transform="translate(267,0)" x2="0" y2="5" stroke="#888" stroke-width="1" opacity="1"/><line transform="translate(274,0)" x2="0" y2="5" stroke="#888" stroke-width="1" opacity="1"/><line transform="translate(280,0)" x2="0" y2="5" stroke="#888" stroke-width="1" opacity="1"/><line transform="translate(287,0)" x2="0" y2="5" stroke="#888" stroke-width="1" opacity="1"/><line transform="translate(293,0)" x2="0" y2="5" stroke="#888" stroke-width="1" opacity="1"/><line transform="translate(300,0)" x2="0" y2="5" stroke="#888" stroke-width="1" opacity="1"/><line transform="translate(307,0)" x2="0" y2="5" stroke="#888" stroke-width="1" opacity="1"/><line transform="translate(313,0)" x2="0" y2="5" stroke="#888" stroke-width="1" opacity="1"/><line transform="translate(320,0)" x2="0" y2="5" stroke="#888" stroke-width="1" opacity="1"/><line transform="translate(326,0)" x2="0" y2="5" stroke="#888" stroke-width="1" opacity="1"/><line transform="translate(333,0)" x2="0" y2="5" stroke="#888" stroke-width="1" opacity="1"/><line transform="translate(340,0)" x2="0" y2="5" stroke="#888" stroke-width="1" opacity="1"/><line transform="translate(346,0)" x2="0" y2="5" stroke="#888" stroke-width="1" opacity="1"/><line transform="translate(353,0)" x2="0" y2="5" stroke="#888" stroke-width="1" opacity="1"/><line transform="translate(359,0)" x2="0" y2="5" stroke="#888" stroke-width="1" opacity="1"/><line transform="translate(366,0)" x2="0" y2="5" stroke="#888" stroke-width="1" opacity="1"/><line transform="translate(373,0)" x2="0" y2="5" stroke="#888" stroke-width="1" opacity="1"/><line transform="translate(379,0)" x2="0" y2="5" stroke="#888" stroke-width="1" opacity="1"/><line transform="translate(386,0)" x2="0" y2="5" stroke="#888" stroke-width="1" opacity="1"/><line transform="translate(392,0)" x2="0" y2="5" stroke="#888" stroke-width="1" opacity="1"/><line transform="translate(399,0)" x2="0" y2="5" stroke="#888" stroke-width="1" opacity="1"/><line transform="translate(405,0)" x2="0" y2="5" stroke="#888" stroke-width="1" opacity="1"/><line transform="translate(412,0)" x2="0" y2="5" stroke="#888" stroke-width="1" opacity="1"/><line transform="translate(419,0)" x2="0" y2="5" stroke="#888" stroke-width="1" opacity="1"/><line transform="translate(425,0)" x2="0" y2="5" stroke="#888" stroke-width="1" opacity="1"/><line transform="translate(432,0)" x2="0" y2="5" stroke="#888" stroke-width="1" opacity="1"/><line transform="translate(438,0)" x2="0" y2="5" stroke="#888" stroke-width="1" opacity="1"/><line transform="translate(445,0)" x2="0" y2="5" stroke="#888" stroke-width="1" opacity="1"/><line transform="translate(452,0)" x2="0" y2="5" stroke="#888" stroke-width="1" opacity="1"/><line transform="translate(458,0)" x2="0" y2="5" stroke="#888" stroke-width="1" opacity="1"/><line transform="translate(465,0)" x2="0" y2="5" stroke="#888" stroke-width="1" opacity="1"/><line transform="translate(471,0)" x2="0" y2="5" stroke="#888" stroke-width="1" opacity="1"/><line transform="translate(478,0)" x2="0" y2="5" stroke="#888" stroke-width="1" opacity="1"/><line transform="translate(485,0)" x2="0" y2="5" stroke="#888" stroke-width="1" opacity="1"/><line transform="translate(491,0)" x2="0" y2="5" stroke="#888" stroke-width="1" opacity="1"/><line transform="translate(498,0)" x2="0" y2="5" stroke="#888" stroke-width="1" opacity="1"/><line transform="translate(504,0)" x2="0" y2="5" stroke="#888" stroke-width="1" opacity="1"/><line transform="translate(511,0)" x2="0" y2="5" stroke="#888" stroke-width="1" opacity="1"/><line transform="translate(518,0)" x2="0" y2="5" stroke="#888" stroke-width="1" opacity="1"/><line transform="translate(524,0)" x2="0" y2="5" stroke="#888" stroke-width="1" opacity="1"/><line transform="translate(531,0)" x2="0" y2="5" stroke="#888" stroke-width="1" opacity="1"/><line transform="translate(537,0)" x2="0" y2="5" stroke="#888" stroke-width="1" opacity="1"/><line transform="translate(544,0)" x2="0" y2="5" stroke="#888" stroke-width="1" opacity="1"/><line transform="translate(551,0)" x2="0" y2="5" stroke="#888" stroke-width="1" opacity="1"/><line transform="translate(557,0)" x2="0" y2="5" stroke="#888" stroke-width="1" opacity="1"/><line transform="translate(564,0)" x2="0" y2="5" stroke="#888" stroke-width="1" opacity="1"/><line transform="translate(570,0)" x2="0" y2="5" stroke="#888" stroke-width="1" opacity="1"/><line transform="translate(577,0)" x2="0" y2="5" stroke="#888" stroke-width="1" opacity="1"/><line transform="translate(584,0)" x2="0" y2="5" stroke="#888" stroke-width="1" opacity="1"/><line transform="translate(590,0)" x2="0" y2="5" stroke="#888" stroke-width="1" opacity="1"/><line transform="translate(597,0)" x2="0" y2="5" stroke="#888" stroke-width="1" opacity="1"/></g><g class="mark-text role-axis-label" pointer-events="none"><text text-anchor="end" transform="translate(3.296703296703299,7) rotate(270) translate(0,3)" font-family="sans-serif" font-size="10px" fill="#000" opacity="1">1979</text><text text-anchor="end" transform="translate(9.890109890109892,7) rotate(270) translate(0,3)" font-family="sans-serif" font-size="10px" fill="#000" opacity="0">1980</text><text text-anchor="end" transform="translate(16.483516483516485,7) rotate(270) translate(0,3)" font-family="sans-serif" font-size="10px" fill="#000" opacity="1">1981</text><text text-anchor="end" transform="translate(23.07692307692308,7) rotate(270) translate(0,3)" font-family="sans-serif" font-size="10px" fill="#000" opacity="0">1982</text><text text-anchor="end" transform="translate(29.67032967032967,7) rotate(270) translate(0,3)" font-family="sans-serif" font-size="10px" fill="#000" opacity="1">1983</text><text text-anchor="end" transform="translate(36.26373626373626,7) rotate(270) translate(0,3)" font-family="sans-serif" font-size="10px" fill="#000" opacity="0">1984</text><text text-anchor="end" transform="translate(42.85714285714286,7) rotate(270) translate(0,3)" font-family="sans-serif" font-size="10px" fill="#000" opacity="1">1985</text><text text-anchor="end" transform="translate(49.45054945054945,7) rotate(270) translate(0,3)" font-family="sans-serif" font-size="10px" fill="#000" opacity="0">1986</text><text text-anchor="end" transform="translate(56.043956043956044,7) rotate(270) translate(0,3)" font-family="sans-serif" font-size="10px" fill="#000" opacity="1">1987</text><text text-anchor="end" transform="translate(62.637362637362635,7) rotate(270) translate(0,3)" font-family="sans-serif" font-size="10px" fill="#000" opacity="0">1988</text><text text-anchor="end" transform="translate(69.23076923076923,7) rotate(270) translate(0,3)" font-family="sans-serif" font-size="10px" fill="#000" opacity="1">1989</text><text text-anchor="end" transform="translate(75.82417582417582,7) rotate(270) translate(0,3)" font-family="sans-serif" font-size="10px" fill="#000" opacity="0">1990</text><text text-anchor="end" transform="translate(82.41758241758242,7) rotate(270) translate(0,3)" font-family="sans-serif" font-size="10px" fill="#000" opacity="1">1991</text><text text-anchor="end" transform="translate(89.01098901098901,7) rotate(270) translate(0,3)" font-family="sans-serif" font-size="10px" fill="#000" opacity="0">1992</text><text text-anchor="end" transform="translate(95.6043956043956,7) rotate(270) translate(0,3)" font-family="sans-serif" font-size="10px" fill="#000" opacity="1">1993</text><text text-anchor="end" transform="translate(102.19780219780219,7) rotate(270) translate(0,3)" font-family="sans-serif" font-size="10px" fill="#000" opacity="0">1994</text><text text-anchor="end" transform="translate(108.79120879120879,7) rotate(270) translate(0,3)" font-family="sans-serif" font-size="10px" fill="#000" opacity="1">1995</text><text text-anchor="end" transform="translate(115.38461538461539,7) rotate(270) translate(0,3)" font-family="sans-serif" font-size="10px" fill="#000" opacity="0">1996</text><text text-anchor="end" transform="translate(121.97802197802197,7) rotate(270) translate(0,3)" font-family="sans-serif" font-size="10px" fill="#000" opacity="1">1997</text><text text-anchor="end" transform="translate(128.57142857142856,7) rotate(270) translate(0,3)" font-family="sans-serif" font-size="10px" fill="#000" opacity="0">1998</text><text text-anchor="end" transform="translate(135.16483516483515,7) rotate(270) translate(0,3)" font-family="sans-serif" font-size="10px" fill="#000" opacity="1">1999</text><text text-anchor="end" transform="translate(141.75824175824175,7) rotate(270) translate(0,3)" font-family="sans-serif" font-size="10px" fill="#000" opacity="0">2000</text><text text-anchor="end" transform="translate(148.35164835164835,7) rotate(270) translate(0,3)" font-family="sans-serif" font-size="10px" fill="#000" opacity="1">2001</text><text text-anchor="end" transform="translate(154.94505494505495,7) rotate(270) translate(0,3)" font-family="sans-serif" font-size="10px" fill="#000" opacity="0">2002</text><text text-anchor="end" transform="translate(161.53846153846155,7) rotate(270) translate(0,3)" font-family="sans-serif" font-size="10px" fill="#000" opacity="1">2003</text><text text-anchor="end" transform="translate(168.13186813186812,7) rotate(270) translate(0,3)" font-family="sans-serif" font-size="10px" fill="#000" opacity="0">2004</text><text text-anchor="end" transform="translate(174.72527472527472,7) rotate(270) translate(0,3)" font-family="sans-serif" font-size="10px" fill="#000" opacity="1">2005</text><text text-anchor="end" transform="translate(181.3186813186813,7) rotate(270) translate(0,3)" font-family="sans-serif" font-size="10px" fill="#000" opacity="0">2006</text><text text-anchor="end" transform="translate(187.9120879120879,7) rotate(270) translate(0,3)" font-family="sans-serif" font-size="10px" fill="#000" opacity="1">2007</text><text text-anchor="end" transform="translate(194.5054945054945,7) rotate(270) translate(0,3)" font-family="sans-serif" font-size="10px" fill="#000" opacity="0">2008</text><text text-anchor="end" transform="translate(201.09890109890108,7) rotate(270) translate(0,3)" font-family="sans-serif" font-size="10px" fill="#000" opacity="1">2009</text><text text-anchor="end" transform="translate(207.69230769230768,7) rotate(270) translate(0,3)" font-family="sans-serif" font-size="10px" fill="#000" opacity="0">2010</text><text text-anchor="end" transform="translate(214.28571428571428,7) rotate(270) translate(0,3)" font-family="sans-serif" font-size="10px" fill="#000" opacity="1">2011</text><text text-anchor="end" transform="translate(220.87912087912088,7) rotate(270) translate(0,3)" font-family="sans-serif" font-size="10px" fill="#000" opacity="0">2012</text><text text-anchor="end" transform="translate(227.47252747252747,7) rotate(270) translate(0,3)" font-family="sans-serif" font-size="10px" fill="#000" opacity="1">2013</text><text text-anchor="end" transform="translate(234.06593406593404,7) rotate(270) translate(0,3)" font-family="sans-serif" font-size="10px" fill="#000" opacity="0">2014</text><text text-anchor="end" transform="translate(240.65934065934064,7) rotate(270) translate(0,3)" font-family="sans-serif" font-size="10px" fill="#000" opacity="1">2015</text><text text-anchor="end" transform="translate(247.25274725274724,7) rotate(270) translate(0,3)" font-family="sans-serif" font-size="10px" fill="#000" opacity="0">2016</text><text text-anchor="end" transform="translate(253.84615384615384,7) rotate(270) translate(0,3)" font-family="sans-serif" font-size="10px" fill="#000" opacity="1">2017</text><text text-anchor="end" transform="translate(260.4395604395604,7) rotate(270) translate(0,3)" font-family="sans-serif" font-size="10px" fill="#000" opacity="0">2018</text><text text-anchor="end" transform="translate(267.032967032967,7) rotate(270) translate(0,3)" font-family="sans-serif" font-size="10px" fill="#000" opacity="1">2019</text><text text-anchor="end" transform="translate(273.6263736263736,7) rotate(270) translate(0,3)" font-family="sans-serif" font-size="10px" fill="#000" opacity="0">2020</text><text text-anchor="end" transform="translate(280.2197802197802,7) rotate(270) translate(0,3)" font-family="sans-serif" font-size="10px" fill="#000" opacity="1">2021</text><text text-anchor="end" transform="translate(286.8131868131868,7) rotate(270) translate(0,3)" font-family="sans-serif" font-size="10px" fill="#000" opacity="0">2022</text><text text-anchor="end" transform="translate(293.4065934065934,7) rotate(270) translate(0,3)" font-family="sans-serif" font-size="10px" fill="#000" opacity="1">2023</text><text text-anchor="end" transform="translate(300,7) rotate(270) translate(0,3)" font-family="sans-serif" font-size="10px" fill="#000" opacity="0">2024</text><text text-anchor="end" transform="translate(306.5934065934066,7) rotate(270) translate(0,3)" font-family="sans-serif" font-size="10px" fill="#000" opacity="1">2025</text><text text-anchor="end" transform="translate(313.1868131868132,7) rotate(270) translate(0,3)" font-family="sans-serif" font-size="10px" fill="#000" opacity="0">2026</text><text text-anchor="end" transform="translate(319.7802197802198,7) rotate(270) translate(0,3)" font-family="sans-serif" font-size="10px" fill="#000" opacity="1">2027</text><text text-anchor="end" transform="translate(326.37362637362634,7) rotate(270) translate(0,3)" font-family="sans-serif" font-size="10px" fill="#000" opacity="0">2028</text><text text-anchor="end" transform="translate(332.96703296703294,7) rotate(270) translate(0,3)" font-family="sans-serif" font-size="10px" fill="#000" opacity="1">2029</text><text text-anchor="end" transform="translate(339.56043956043953,7) rotate(270) translate(0,3)" font-family="sans-serif" font-size="10px" fill="#000" opacity="0">2030</text><text text-anchor="end" transform="translate(346.15384615384613,7) rotate(270) translate(0,3)" font-family="sans-serif" font-size="10px" fill="#000" opacity="1">2031</text><text text-anchor="end" transform="translate(352.74725274725273,7) rotate(270) translate(0,3)" font-family="sans-serif" font-size="10px" fill="#000" opacity="0">2032</text><text text-anchor="end" transform="translate(359.34065934065933,7) rotate(270) translate(0,3)" font-family="sans-serif" font-size="10px" fill="#000" opacity="1">2033</text><text text-anchor="end" transform="translate(365.9340659340659,7) rotate(270) translate(0,3)" font-family="sans-serif" font-size="10px" fill="#000" opacity="0">2034</text><text text-anchor="end" transform="translate(372.5274725274725,7) rotate(270) translate(0,3)" font-family="sans-serif" font-size="10px" fill="#000" opacity="1">2035</text><text text-anchor="end" transform="translate(379.1208791208791,7) rotate(270) translate(0,3)" font-family="sans-serif" font-size="10px" fill="#000" opacity="0">2036</text><text text-anchor="end" transform="translate(385.7142857142857,7) rotate(270) translate(0,3)" font-family="sans-serif" font-size="10px" fill="#000" opacity="1">2037</text><text text-anchor="end" transform="translate(392.30769230769226,7) rotate(270) translate(0,3)" font-family="sans-serif" font-size="10px" fill="#000" opacity="0">2038</text><text text-anchor="end" transform="translate(398.90109890109886,7) rotate(270) translate(0,3)" font-family="sans-serif" font-size="10px" fill="#000" opacity="1">2039</text><text text-anchor="end" transform="translate(405.49450549450546,7) rotate(270) translate(0,3)" font-family="sans-serif" font-size="10px" fill="#000" opacity="0">2040</text><text text-anchor="end" transform="translate(412.08791208791206,7) rotate(270) translate(0,3)" font-family="sans-serif" font-size="10px" fill="#000" opacity="1">2041</text><text text-anchor="end" transform="translate(418.68131868131866,7) rotate(270) translate(0,3)" font-family="sans-serif" font-size="10px" fill="#000" opacity="0">2042</text><text text-anchor="end" transform="translate(425.27472527472526,7) rotate(270) translate(0,3)" font-family="sans-serif" font-size="10px" fill="#000" opacity="1">2043</text><text text-anchor="end" transform="translate(431.86813186813185,7) rotate(270) translate(0,3)" font-family="sans-serif" font-size="10px" fill="#000" opacity="0">2044</text><text text-anchor="end" transform="translate(438.46153846153845,7) rotate(270) translate(0,3)" font-family="sans-serif" font-size="10px" fill="#000" opacity="1">2045</text><text text-anchor="end" transform="translate(445.05494505494505,7) rotate(270) translate(0,3)" font-family="sans-serif" font-size="10px" fill="#000" opacity="0">2046</text><text text-anchor="end" transform="translate(451.64835164835165,7) rotate(270) translate(0,3)" font-family="sans-serif" font-size="10px" fill="#000" opacity="1">2047</text><text text-anchor="end" transform="translate(458.24175824175825,7) rotate(270) translate(0,3)" font-family="sans-serif" font-size="10px" fill="#000" opacity="0">2048</text><text text-anchor="end" transform="translate(464.8351648351648,7) rotate(270) translate(0,3)" font-family="sans-serif" font-size="10px" fill="#000" opacity="1">2049</text><text text-anchor="end" transform="translate(471.4285714285714,7) rotate(270) translate(0,3)" font-family="sans-serif" font-size="10px" fill="#000" opacity="0">2050</text><text text-anchor="end" transform="translate(478.021978021978,7) rotate(270) translate(0,3)" font-family="sans-serif" font-size="10px" fill="#000" opacity="1">2051</text><text text-anchor="end" transform="translate(484.6153846153846,7) rotate(270) translate(0,3)" font-family="sans-serif" font-size="10px" fill="#000" opacity="0">2052</text><text text-anchor="end" transform="translate(491.2087912087912,7) rotate(270) translate(0,3)" font-family="sans-serif" font-size="10px" fill="#000" opacity="1">2053</text><text text-anchor="end" transform="translate(497.8021978021978,7) rotate(270) translate(0,3)" font-family="sans-serif" font-size="10px" fill="#000" opacity="0">2054</text><text text-anchor="end" transform="translate(504.3956043956044,7) rotate(270) translate(0,3)" font-family="sans-serif" font-size="10px" fill="#000" opacity="1">2055</text><text text-anchor="end" transform="translate(510.989010989011,7) rotate(270) translate(0,3)" font-family="sans-serif" font-size="10px" fill="#000" opacity="0">2056</text><text text-anchor="end" transform="translate(517.5824175824175,7) rotate(270) translate(0,3)" font-family="sans-serif" font-size="10px" fill="#000" opacity="1">2057</text><text text-anchor="end" transform="translate(524.1758241758241,7) rotate(270) translate(0,3)" font-family="sans-serif" font-size="10px" fill="#000" opacity="0">2058</text><text text-anchor="end" transform="translate(530.7692307692307,7) rotate(270) translate(0,3)" font-family="sans-serif" font-size="10px" fill="#000" opacity="1">2059</text><text text-anchor="end" transform="translate(537.3626373626373,7) rotate(270) translate(0,3)" font-family="sans-serif" font-size="10px" fill="#000" opacity="0">2060</text><text text-anchor="end" transform="translate(543.9560439560439,7) rotate(270) translate(0,3)" font-family="sans-serif" font-size="10px" fill="#000" opacity="1">2061</text><text text-anchor="end" transform="translate(550.5494505494505,7) rotate(270) translate(0,3)" font-family="sans-serif" font-size="10px" fill="#000" opacity="0">2062</text><text text-anchor="end" transform="translate(557.1428571428571,7) rotate(270) translate(0,3)" font-family="sans-serif" font-size="10px" fill="#000" opacity="1">2063</text><text text-anchor="end" transform="translate(563.7362637362637,7) rotate(270) translate(0,3)" font-family="sans-serif" font-size="10px" fill="#000" opacity="0">2064</text><text text-anchor="end" transform="translate(570.3296703296703,7) rotate(270) translate(0,3)" font-family="sans-serif" font-size="10px" fill="#000" opacity="1">2065</text><text text-anchor="end" transform="translate(576.9230769230769,7) rotate(270) translate(0,3)" font-family="sans-serif" font-size="10px" fill="#000" opacity="0">2066</text><text text-anchor="end" transform="translate(583.5164835164835,7) rotate(270) translate(0,3)" font-family="sans-serif" font-size="10px" fill="#000" opacity="1">2067</text><text text-anchor="end" transform="translate(590.1098901098901,7) rotate(270) translate(0,3)" font-family="sans-serif" font-size="10px" fill="#000" opacity="0">2068</text><text text-anchor="end" transform="translate(596.7032967032967,7) rotate(270) translate(0,3)" font-family="sans-serif" font-size="10px" fill="#000" opacity="1">2069</text></g><g class="mark-rule role-axis-domain" pointer-events="none"><line transform="translate(0,0)" x2="600" y2="0" stroke="#888" stroke-width="1" opacity="1"/></g><g class="mark-text role-axis-title" pointer-events="none"><text text-anchor="middle" transform="translate(300,42.24609375)" font-family="sans-serif" font-size="11px" font-weight="bold" fill="#000" opacity="1">Year</text></g></g><path class="foreground" aria-hidden="true" d="" pointer-events="none" display="none"/></g></g><g class="mark-group role-axis" role="graphics-symbol" aria-roledescription="axis" aria-label="Y-axis titled 'Temperature (°F)' for a linear scale with values from 0 to 80"><g transform="translate(0.5,0.5)"><path class="background" aria-hidden="true" d="M0,0h0v0h0Z" pointer-events="none"/><g><g class="mark-rule role-axis-tick" pointer-events="none"><line transform="translate(0,300)" x2="-5" y2="0" stroke="#888" stroke-width="1" opacity="1"/><line transform="translate(0,263)" x2="-5" y2="0" stroke="#888" stroke-width="1" opacity="1"/><line transform="translate(0,225)" x2="-5" y2="0" stroke="#888" stroke-width="1" opacity="1"/><line transform="translate(0,188)" x2="-5" y2="0" stroke="#888" stroke-width="1" opacity="1"/><line transform="translate(0,150)" x2="-5" y2="0" stroke="#888" stroke-width="1" opacity="1"/><line transform="translate(0,113)" x2="-5" y2="0" stroke="#888" stroke-width="1" opacity="1"/><line transform="translate(0,75)" x2="-5" y2="0" stroke="#888" stroke-width="1" opacity="1"/><line transform="translate(0,38)" x2="-5" y2="0" stroke="#888" stroke-width="1" opacity="1"/><line transform="translate(0,0)" x2="-5" y2="0" stroke="#888" stroke-width="1" opacity="1"/></g><g class="mark-text role-axis-label" pointer-events="none"><text text-anchor="end" transform="translate(-7,303)" font-family="sans-serif" font-size="10px" fill="#000" opacity="1">0</text><text text-anchor="end" transform="translate(-7,265.5)" font-family="sans-serif" font-size="10px" fill="#000" opacity="1">10</text><text text-anchor="end" transform="translate(-7,228)" font-family="sans-serif" font-size="10px" fill="#000" opacity="1">20</text><text text-anchor="end" transform="translate(-7,190.5)" font-family="sans-serif" font-size="10px" fill="#000" opacity="1">30</text><text text-anchor="end" transform="translate(-7,153)" font-family="sans-serif" font-size="10px" fill="#000" opacity="1">40</text><text text-anchor="end" transform="translate(-7,115.5)" font-family="sans-serif" font-size="10px" fill="#000" opacity="1">50</text><text text-anchor="end" transform="translate(-7,78)" font-family="sans-serif" font-size="10px" fill="#000" opacity="1">60</text><text text-anchor="end" transform="translate(-7,40.5)" font-family="sans-serif" font-size="10px" fill="#000" opacity="1">70</text><text text-anchor="end" transform="translate(-7,3)" font-family="sans-serif" font-size="10px" fill="#000" opacity="1">80</text></g><g class="mark-rule role-axis-domain" pointer-events="none"><line transform="translate(0,300)" x2="0" y2="-300" stroke="#888" stroke-width="1" opacity="1"/></g><g class="mark-text role-axis-title" pointer-events="none"><text text-anchor="middle" transform="translate(-22.123046875,150) rotate(-90) translate(0,-2)" font-family="sans-serif" font-size="11px" font-weight="bold" fill="#000" opacity="1">Temperature (°F)</text></g></g><path class="foreground" aria-hidden="true" d="" pointer-events="none" display="none"/></g></g><g class="mark-group role-scope layer_0_layer_0_pathgroup" role="graphics-object" aria-roledescription="group mark container"><g transform="translate(0,0)"><path class="background" aria-hidden="true" d="M0,0h600v300h-600Z"/><g><g class="mark-area role-mark layer_0_layer_0_marks" role="graphics-symbol" aria-roledescription="area mark container"><path d="M3.296703296703299,152.07187508046627L9.890109890109892,173.78156340122223L16.483516483516485,178.93012499436736L23.07692307692308,153.97199915349483L29.67032967032967,159.78037360310555L36.26373626373626,159.7634994238615L42.85714285714286,161.94881165027618L49.45054945054945,162.24918639147654L56.043956043956044,154.45124801248312L62.637362637362635,167.68631241470572L69.23076923076923,159.80399920418856L75.82417582417582,156.0037475377321L82.41758241758242,162.98662396520373L89.01098901098901,167.19524974934757L95.6043956043956,168.7123118788004L102.19780219780219,163.42706152796745L108.79120879120879,173.94862505793571L115.38461538461539,174.25068746600303L121.97802197802197,163.53843730688098L128.57142857142856,153.81674994528296L135.16483516483515,177.6779998142738L141.75824175824175,163.02374888956547L148.35164835164835,163.20431178063154L154.94505494505495,159.99806141853335L161.53846153846155,158.68856218457222L168.13186813186812,155.3169373422861L174.72527472527472,176.39381237095222L181.3186813186813,160.63087472319603L187.9120879120879,154.61999905854464L194.5054945054945,166.8273738026619L201.09890109890108,157.84312480688098L207.69230769230768,165.3035611063242L214.28571428571428,157.2035617902875L220.87912087912088,161.4324370622635L227.47252747252747,169.20674934983253L234.06593406593404,169.313061889261L240.65934065934064,146.23143703490496L247.25274725274724,150.48731065168977L253.84615384615384,151.9790624678135L260.4395604395604,160.9126865118742L267.032967032967,164.84338134527206L273.6263736263736,140.01350757479668L273.6263736263736,55.17241716384886L267.032967032967,44.96878874301906L260.4395604395604,40.03873944282532L253.84615384615384,57.163497090339646L247.25274725274724,45.0185587406158L240.65934065934064,45.799870133399935L234.06593406593404,58.92187178134918L227.47252747252747,61.27424204349518L220.87912087912088,54.38249588012695L214.28571428571428,55.312306165695176L207.69230769230768,54.800997734069796L201.09890109890108,62.175374150276184L194.5054945054945,55.81011557579038L187.9120879120879,54.736866116523714L181.3186813186813,68.63005971908571L174.72527472527472,50.48099541664125L168.13186813186812,56.63361382484436L161.53846153846155,65.28037118911742L154.94505494505495,50.83030915260312L148.35164835164835,67.89430832862851L141.75824175824175,63.43424642086029L135.16483516483515,61.92730629444122L128.57142857142856,54.579931139945984L121.97802197802197,68.790369451046L115.38461538461539,59.69980680942538L108.79120879120879,66.64387053251265L102.19780219780219,66.27937120199203L95.6043956043956,63.60806000232695L89.01098901098901,66.95099258422853L82.41758241758242,49.81105899810788L75.82417582417582,66.4852409362793L69.23076923076923,65.29386699199675L62.637362637362635,68.68911552429199L56.043956043956044,57.73387098312381L49.45054945054945,57.97687268257138L42.85714285714286,63.911810517311096L36.26373626373626,67.96349322795866L29.67032967032967,63.93711876869202L23.07692307692308,59.752119541168184L16.483516483516485,67.26486897468568L9.890109890109892,61.68937075138092L3.296703296703299,61.86656391620636Z" fill="grey" opacity="0.3"/></g></g><path class="foreground" aria-hidden="true" d="" display="none"/></g><g transform="translate(0,0)"><path class="background" aria-hidden="true" d="M0,0h600v300h-600Z"/><g><g class="mark-area role-mark layer_0_layer_0_marks" role="graphics-symbol" aria-roledescription="area mark container"><path d="M273.6263736263736,147.2440893173216L280.2197802197802,143.49397487640368L286.8131868131868,144.96417732238754L293.4065934065934,144.4208690643309L300,150.50895996093735L306.5934065934066,151.70696754455548L313.1868131868132,143.15915794372543L319.7802197802198,148.04661483764633L326.37362637362634,143.8623687744139L332.96703296703294,145.21072597503647L339.56043956043953,144.0906869888304L346.15384615384613,138.98997516632065L352.74725274725273,147.6120712280272L359.34065934065933,142.67141647338852L365.9340659340659,144.3262407302855L372.5274725274725,141.68009777069076L379.1208791208791,145.12562484741196L385.7142857142857,142.07452411651596L392.30769230769226,139.73227329254135L398.90109890109886,139.64464874267563L405.49450549450546,139.20312709808334L412.08791208791206,139.11836071014386L418.68131868131866,139.14230747222885L425.27472527472526,138.86892814636215L431.86813186813185,137.3741352081297L438.46153846153845,137.4136859893797L445.05494505494505,137.84053058624252L451.64835164835165,135.25018615722644L458.24175824175825,131.82139606475815L464.8351648351648,139.86117382049545L471.4285714285714,134.1696464538573L478.021978021978,142.30719394683823L484.6153846153846,137.65464706420883L491.2087912087912,132.5127880096434L497.8021978021978,140.70456333160385L504.3956043956044,138.25048370361313L510.989010989011,131.60008163452133L517.5824175824175,132.2974731445311L524.1758241758241,133.9559795379637L530.7692307692307,131.97805423736557L537.3626373626373,131.5289365768431L543.9560439560439,134.6711894989012L550.5494505494505,137.0147020339964L557.1428571428571,132.51077957153305L563.7362637362637,128.76849288940414L570.3296703296703,128.58605976104724L576.9230769230769,128.61237545013412L583.5164835164835,132.45902366638168L590.1098901098901,127.83804531097397L596.7032967032967,130.05942935943585L596.7032967032967,21.94098300933821L590.1098901098901,23.26387424468976L583.5164835164835,25.714863967895326L576.9230769230769,26.028772544860672L570.3296703296703,22.81691951751695L563.7362637362637,25.855995368957338L557.1428571428571,28.780924987792815L550.5494505494505,25.112075042724413L543.9560439560439,28.080469322204408L537.3626373626373,31.66069049835194L530.7692307692307,29.233518791198534L524.1758241758241,28.261820983886565L517.5824175824175,33.93831081390363L510.989010989011,31.377552223205385L504.3956043956044,33.61966438293439L497.8021978021978,32.10285587310776L491.2087912087912,31.59165687561017L484.6153846153846,37.48016567230208L478.021978021978,34.68671150207501L471.4285714285714,32.46949882507309L464.8351648351648,31.945528221130218L458.24175824175825,34.31543369293195L451.64835164835165,35.00105781555163L445.05494505494505,37.30162067413312L438.46153846153845,37.51423187255841L431.86813186813185,37.76528663635236L425.27472527472526,39.228047561645326L418.68131868131866,38.47995586395248L412.08791208791206,40.5366994857786L405.49450549450546,36.53269786834707L398.90109890109886,37.204932403564314L392.30769230769226,41.80762882232648L385.7142857142857,39.311037254333286L379.1208791208791,38.98747272491437L372.5274725274725,42.39628143310529L365.9340659340659,40.959604454040374L359.34065934065933,43.195356559753264L352.74725274725273,43.18855876922589L346.15384615384613,40.46480770111066L339.56043956043953,43.8654024124144L332.96703296703294,46.15579433441147L326.37362637362634,39.06585330963115L319.7802197802198,43.97929115295396L313.1868131868132,40.813297462463254L306.5934065934066,45.152939987182464L300,43.735343170165834L293.4065934065934,41.668171119689816L286.8131868131868,46.05838508605942L280.2197802197802,41.90465183258041L273.6263736263736,40.820043754577455Z" fill="#D0372D" opacity="0.3"/></g></g><path class="foreground" aria-hidden="true" d="" display="none"/></g></g><g class="mark-group role-scope layer_1_pathgroup" role="graphics-object" aria-roledescription="group mark container"><g transform="translate(0,0)"><path class="background" aria-hidden="true" d="M0,0h600v300h-600Z"/><g><g class="mark-line role-mark layer_1_marks" role="graphics-symbol" aria-roledescription="line mark container"><path d="M3.296703296703299,114.62625038623811L9.890109890109892,121.08937525749207L16.483516483516485,110.7821223735809L23.07692307692308,119.44237232208252L29.67032967032967,115.25399672985077L36.26373626373626,101.58524930477142L42.85714285714286,99.71549642086029L49.45054945054945,103.98486936092375L56.043956043956044,127.0259964466095L62.637362637362635,126.79312062263486L69.23076923076923,122.31787312030792L75.82417582417582,116.63774621486662L82.41758241758242,103.80937242507933L89.01098901098901,118.93612360954286L95.6043956043956,117.26887214183807L102.19780219780219,115.3518726825714L108.79120879120879,114.05587327480316L115.38461538461539,113.12774634361266L121.97802197802197,124.49137008190154L128.57142857142856,110.75849747657774L135.16483516483515,111.15674757957457L141.75824175824175,110.72474670410158L148.35164835164835,105.78712069988251L154.94505494505495,106.81312036514284L161.53846153846155,112.32786977291106L168.13186813186812,109.47599709033966L174.72527472527472,107.72774505615234L181.3186813186813,111.6731221675873L187.9120879120879,103.81274557113646L194.5054945054945,109.20599734783171L201.09890109890108,116.22937345504761L207.69230769230768,105.36862206459048L214.28571428571428,103.83974683284761L220.87912087912088,110.29949855804442L227.47252747252747,106.66462147235872L234.06593406593404,105.7331213951111L240.65934065934064,109.66837263107297L247.25274725274724,102.8846218585968L253.84615384615384,92.22974824905394L260.4395604395604,114.77812242507935L267.032967032967,95.56762754917145L273.6263736263736,110.03692746162415" stroke="grey" stroke-width="2"/></g></g><path class="foreground" aria-hidden="true" d="" display="none"/></g><g transform="translate(0,0)"><path class="background" aria-hidden="true" d="M0,0h600v300h-600Z"/><g><g class="mark-line role-mark layer_1_marks" role="graphics-symbol" aria-roledescription="line mark container"><path d="M273.6263736263736,98.1038658142088L280.2197802197802,98.30579109191876L286.8131868131868,99.29486961364731L293.4065934065934,94.87563629150372L300,97.23544807434068L306.5934065934066,95.03054351806625L313.1868131868132,95.94973869323717L319.7802197802198,96.7463161468504L326.37362637362634,93.3109600067137L332.96703296703294,94.1290122985838L339.56043956043953,93.10342140197737L346.15384615384613,94.96926040649399L352.74725274725273,91.79412574768051L359.34065934065933,91.52710647582991L365.9340659340659,93.55737991332992L372.5274725274725,89.34429473876936L379.1208791208791,90.95918197631818L385.7142857142857,91.230527114868L392.30769230769226,88.61090583801257L398.90109890109886,89.661679458618L405.49450549450546,91.705136489868L412.08791208791206,89.76519126892074L418.68131868131866,88.13330955505356L425.27472527472526,92.19689483642564L431.86813186813185,89.50610275268541L438.46153846153845,87.9910709381102L445.05494505494505,88.63758201599104L451.64835164835165,91.43919868469222L458.24175824175825,88.5919029235838L464.8351648351648,86.08913154602035L471.4285714285714,84.99087638854967L478.021978021978,88.83961029052718L484.6153846153846,87.01697845458966L491.2087912087912,84.49927253723126L497.8021978021978,85.63367958068831L504.3956043956044,84.37706680297836L510.989010989011,82.07137985229478L517.5824175824175,86.83632202148421L524.1758241758241,80.73247261047347L530.7692307692307,82.70084495544417L537.3626373626373,82.33731765747054L543.9560439560439,81.0670578002928L550.5494505494505,80.89906997680646L557.1428571428571,80.90844268798814L563.7362637362637,79.95242614746078L570.3296703296703,79.56922645568832L576.9230769230769,79.4023200988768L583.5164835164835,77.69942207336412L590.1098901098901,75.96454353332504L596.7032967032967,77.0106307983397" stroke="#D0372D" stroke-width="2"/></g></g><path class="foreground" aria-hidden="true" d="" display="none"/></g></g><g class="mark-group role-legend" role="graphics-symbol" aria-roledescription="legend" aria-label="Symbol legend titled 'Climate model' for fill color and stroke color with 2 values: Historic temperature, Projected temperature"><g transform="translate(618,0)"><path class="background" aria-hidden="true" d="M0,0h115v45h-115Z" pointer-events="none"/><g><g class="mark-group role-legend-entry"><g transform="translate(0,16)"><path class="background" aria-hidden="true" d="M0,0h0v0h0Z" pointer-events="none"/><g><g class="mark-group role-scope" role="graphics-object" aria-roledescription="group mark container"><g transform="translate(0,0)"><path class="background" aria-hidden="true" d="M0,0h114.9404296875v12.5h-114.9404296875Z" pointer-events="none" opacity="1"/><g><g class="mark-symbol role-legend-symbol" pointer-events="none"><path transform="translate(6,6)" d="M5,0A5,5,0,1,1,-5,0A5,5,0,1,1,5,0" fill="grey" stroke="grey" stroke-width="1.5" opacity="0.3"/></g><g class="mark-text role-legend-label" pointer-events="none"><text text-anchor="start" transform="translate(16,9)" font-family="sans-serif" font-size="10px" fill="#000" opacity="1">Historic temperature</text></g></g><path class="foreground" aria-hidden="true" d="" pointer-events="none" display="none"/></g><g transform="translate(0,16)"><path class="background" aria-hidden="true" d="M0,0h114.9404296875v12.5h-114.9404296875Z" pointer-events="none" opacity="1"/><g><g class="mark-symbol role-legend-symbol" pointer-events="none"><path transform="translate(6,6)" d="M5,0A5,5,0,1,1,-5,0A5,5,0,1,1,5,0" fill="#D0372D" stroke="#D0372D" stroke-width="1.5" opacity="0.3"/></g><g class="mark-text role-legend-label" pointer-events="none"><text text-anchor="start" transform="translate(16,9)" font-family="sans-serif" font-size="10px" fill="#000" opacity="1">Projected temperature</text></g></g><path class="foreground" aria-hidden="true" d="" pointer-events="none" display="none"/></g></g></g><path class="foreground" aria-hidden="true" d="" pointer-events="none" display="none"/></g></g><g class="mark-text role-legend-title" pointer-events="none"><text text-anchor="start" transform="translate(0,9)" font-family="sans-serif" font-size="11px" font-weight="bold" fill="#000" opacity="1">Climate model</text></g></g><path class="foreground" aria-hidden="true" d="" pointer-events="none" display="none"/></g></g></g><path class="foreground" aria-hidden="true" d="" display="none"/></g></g></g></svg>